<?xml version="1.0" standalone="no"?>
<!DOCTYPE svg PUBLIC "-//W3C//DTD SVG 20010904//EN"
 "http://www.w3.org/TR/2001/REC-SVG-20010904/DTD/svg10.dtd">
<svg version="1.0" xmlns="http://www.w3.org/2000/svg"
 width="288.000000pt" height="369.000000pt" viewBox="0 0 288.000000 369.000000"
 preserveAspectRatio="xMidYMid meet">

<g transform="translate(0.000000,369.000000) scale(0.100000,-0.100000)"
fill="yellow" stroke="none">
<path d="M1280 3542 c0 -83 -63 -218 -161 -347 -90 -119 -121 -185 -127 -272
-6 -92 12 -151 84 -264 91 -146 109 -191 109 -289 0 -77 -3 -91 -34 -147 -18
-34 -60 -94 -93 -132 -71 -85 -60 -91 60 -31 165 83 287 270 267 410 -9 62
-31 108 -107 225 -98 152 -103 166 -103 270 0 83 3 96 38 172 55 119 76 185
89 283 11 86 5 160 -12 160 -6 0 -10 -17 -10 -38z"/>
<path d="M1351 3150 c-73 -170 -46 -273 139 -520 175 -235 199 -343 108 -509
-16 -29 -27 -56 -23 -59 10 -10 74 29 117 71 22 21 52 64 66 95 23 48 27 71
27 142 0 75 -4 93 -32 152 -44 93 -79 142 -171 237 -110 113 -167 226 -187
371 -9 73 -19 78 -44 20z"/>
<path d="M1030 1895 c-204 -26 -360 -69 -425 -120 -56 -42 -59 -57 -30 -121
32 -71 57 -173 90 -378 14 -87 35 -199 47 -248 11 -50 16 -93 12 -98 -5 -5
-37 -20 -72 -33 -261 -106 -387 -294 -308 -462 50 -109 223 -229 414 -289 450
-141 1100 -112 1406 64 77 43 258 209 280 255 23 50 18 123 -14 188 -30 59
-117 144 -193 187 -31 17 -59 36 -62 41 -3 4 29 34 72 65 99 73 225 194 263
254 92 144 73 321 -42 398 -36 23 -52 27 -117 27 -53 0 -86 -5 -110 -17 -51
-26 -65 -10 -40 45 24 53 24 68 -1 100 -40 50 -170 96 -380 133 -134 23 -629
29 -790 9z m675 -90 c316 -38 406 -104 218 -161 -113 -34 -263 -48 -528 -48
-322 -1 -520 24 -604 75 -127 77 142 145 584 148 123 0 250 -5 330 -14z m682
-347 c53 -49 18 -168 -79 -268 -51 -52 -167 -135 -176 -126 -8 9 28 197 49
252 23 61 67 117 114 146 39 24 64 23 92 -4z m-1574 -20 c22 -20 29 -46 56
-203 54 -310 112 -474 215 -613 46 -61 46 -62 16 -47 -17 9 -57 43 -90 76
-105 108 -164 259 -214 544 -14 83 -31 172 -36 199 -8 38 -8 51 2 58 19 12 25
10 51 -14z m-155 -725 c-27 -48 -32 -67 -32 -124 0 -57 4 -74 30 -115 73 -119
254 -216 519 -280 l100 -24 -85 6 c-287 18 -568 131 -650 261 -53 84 -37 187
42 259 39 36 90 73 101 74 4 0 -7 -26 -25 -57z"/>
<path d="M1095 1775 c-181 -28 -219 -84 -82 -119 100 -26 208 -36 375 -36 228
0 411 27 442 65 15 18 16 18 -62 1 -143 -32 -382 -28 -505 9 -65 19 -87 39
-73 65 19 35 23 34 -95 15z"/>
</g>
</svg>
